<svg xmlns="http://www.w3.org/2000/svg" xmlns:xlink="http://www.w3.org/1999/xlink" xml:space="preserve" version="1.1" style="shape-rendering:geometricPrecision;text-rendering:geometricPrecision;image-rendering:optimizeQuality;" viewBox="0 0 6657 8321.25" x="0px" y="0px" fill-rule="evenodd" clip-rule="evenodd"><defs><style type="text/css">
   
    .fil0 {fill:black;fill-rule:nonzero}
   
  </style></defs><g><path class="fil0" d="M4418 3329l2015 -2016c299,-299 299,-790 0,-1089 -299,-299 -790,-299 -1089,0l-2015 2015 -2016 -2015c-299,-299 -790,-299 -1089,0 -299,299 -299,790 0,1089l2015 2016 -2015 2015c-299,299 -299,790 0,1089 299,299 790,299 1089,0l2016 -2015 2015 2015c299,299 790,299 1089,0 299,-299 299,-790 0,-1089l-2015 -2015z"/></g><text x="0" y="6672" fill="#000000" font-size="5px" font-weight="bold" font-family="'Helvetica Neue', Helvetica, Arial-Unicode, Arial, Sans-serif">Created by rama</text><text x="0" y="6677" fill="#000000" font-size="5px" font-weight="bold" font-family="'Helvetica Neue', Helvetica, Arial-Unicode, Arial, Sans-serif">from the Noun Project</text></svg>